<svg xmlns="http://www.w3.org/2000/svg" viewBox="0 0 24 24" width="24" height="24" color="#4a4a4a" fill="none">
    <defs />
    <path fill="currentColor" d="M6.785,11.735 C6.752,12.198 6.75,12.799 6.75,13.694 L6.75,22 C6.75,22.414 6.414,22.75 6,22.75 C5.586,22.75 5.25,22.414 5.25,22 L5.25,13.694 L5.25,13.576 L5.25,13.576 C5.25,12.123 5.25,11.24 5.494,10.398 C5.739,9.555 6.211,8.818 6.985,7.61 L7.048,7.511 L9.704,3.36 L9.734,3.313 L9.734,3.313 C10.085,2.765 10.392,2.285 10.683,1.95 C10.989,1.597 11.406,1.25 12,1.25 C12.594,1.25 13.011,1.597 13.317,1.95 C13.608,2.285 13.915,2.765 14.266,3.313 L14.266,3.313 L16.952,7.511 L17.015,7.61 C17.789,8.818 18.261,9.555 18.506,10.398 C18.75,11.24 18.75,12.123 18.75,13.576 L18.75,22 C18.75,22.414 18.414,22.75 18,22.75 C17.586,22.75 17.25,22.414 17.25,22 L17.25,13.694 C17.25,12.799 17.248,12.198 17.215,11.735 C17.113,11.792 17,11.859 16.869,11.935 L16.864,11.938 C16.686,12.043 16.482,12.163 16.269,12.275 C15.855,12.493 15.317,12.73 14.745,12.749 C14.031,12.772 13.449,12.472 13.045,12.263 L13.014,12.247 C12.918,12.198 12.831,12.153 12.75,12.114 L12.75,22 C12.75,22.414 12.414,22.75 12,22.75 C11.586,22.75 11.25,22.414 11.25,22 L11.25,12.114 C11.169,12.153 11.082,12.198 10.986,12.247 L10.956,12.263 C10.551,12.472 9.969,12.772 9.256,12.749 C8.683,12.73 8.145,12.493 7.731,12.275 C7.519,12.163 7.314,12.043 7.136,11.938 L7.131,11.935 C7.001,11.858 6.887,11.792 6.785,11.735 Z M9.956,5.749 L8.311,8.32 C7.71,9.259 7.362,9.809 7.147,10.264 C7.213,10.278 7.279,10.3 7.342,10.333 C7.519,10.423 7.707,10.533 7.879,10.635 L7.892,10.642 C8.076,10.751 8.252,10.854 8.429,10.947 C8.8,11.142 9.086,11.243 9.305,11.25 C9.592,11.259 9.852,11.144 10.299,10.914 L10.357,10.884 C10.751,10.68 11.316,10.387 12,10.387 C12.684,10.387 13.25,10.68 13.644,10.884 L13.702,10.914 C14.148,11.144 14.408,11.259 14.696,11.25 C14.914,11.243 15.201,11.142 15.571,10.947 C15.749,10.854 15.925,10.751 16.108,10.642 L16.121,10.635 C16.294,10.533 16.481,10.423 16.659,10.333 C16.722,10.3 16.787,10.278 16.853,10.264 C16.638,9.809 16.29,9.259 15.689,8.32 L14.044,5.749 C14.029,5.75 14.015,5.75 14,5.75 L10,5.75 C9.985,5.75 9.971,5.75 9.956,5.749 Z M10.968,4.168 L10.915,4.25 L13.085,4.25 L13.032,4.168 C12.643,3.56 12.394,3.175 12.184,2.932 C12.089,2.823 12.03,2.776 12,2.757 C11.97,2.776 11.911,2.823 11.816,2.932 C11.606,3.175 11.357,3.56 10.968,4.168 Z M12.025,2.745 C12.025,2.745 12.021,2.745 12.014,2.749 C12.021,2.748 12.025,2.746 12.025,2.745 Z M11.986,2.749 C11.979,2.745 11.975,2.745 11.975,2.745 C11.975,2.746 11.979,2.748 11.986,2.749 Z" />
</svg>