<svg width="58" height="60" viewBox="0 0 58 60" fill="none" xmlns="http://www.w3.org/2000/svg">
<path d="M27.7476 1.98249C28.7207 -0.716503 32.5637 -0.640839 33.4298 2.09436L35.7252 9.34303C36.2211 10.9091 37.8842 11.7851 39.4562 11.3082L46.6431 9.12776C49.0444 8.39925 51.2256 10.7652 50.3048 13.0994L49.297 15.654C48.587 17.454 49.7414 19.4454 51.6563 19.7237L54.9339 20.2C57.6734 20.5981 58.4578 24.1781 56.1357 25.6853L51.4151 28.7492C50.1058 29.599 49.6669 31.3108 50.4057 32.6857L56.2454 43.5526C57.5278 45.939 55.2404 48.6683 52.6666 47.8228L43.3596 44.7657C41.6735 44.2118 39.8778 45.2347 39.4943 46.9675L38.0718 53.3936C37.5111 55.9267 34.2168 56.6019 32.7048 54.4935L30.3691 51.2366C29.2754 49.7114 27.0657 49.5537 25.7664 50.908L18.7121 58.2608C16.841 60.2111 13.5473 58.8867 13.5473 56.1839V50.7274C13.5473 49.0706 12.2042 47.7274 10.5473 47.7274H7.80188C5.18254 47.7274 3.84495 44.584 5.66117 42.6966C7.28868 41.0053 6.40447 38.1834 4.10283 37.7233L2.41259 37.3855C-0.487124 36.8058 -0.887849 32.8238 1.83822 31.678L5.89804 29.9716C7.87597 29.1403 8.36716 26.5617 6.83341 25.0614L2.9688 21.2811C0.996201 19.3515 2.45536 16.0067 5.21157 16.14L12.9091 16.5124C14.9128 16.6093 16.4453 14.7503 15.9679 12.8019L14.9885 8.80501C14.3977 6.39401 16.8237 4.34958 19.0997 5.34036L22.5939 6.86139C24.1828 7.55307 26.0256 6.75848 26.6134 5.12825L27.7476 1.98249Z" fill="#313431"/>
</svg>
